RubikHebrew-Medium.ufo
<glyph name="parenright" format="1">
  <advance width="362"/>
  <unicode hex="0029"/>
  <outline>
    <contour>
      <point x="227" y="-159"/>
      <point x="313" y="-21"/>
      <point x="313" y="309" type="curve" smooth="yes"/>
      <point x="313" y="639"/>
      <point x="227" y="776"/>
      <point x="48" y="776" type="curve" smooth="yes"/>
      <point x="35" y="776"/>
      <point x="24" y="765"/>
      <point x="24" y="752" type="curve" smooth="yes"/>
      <point x="24" y="691" type="line" smooth="yes"/>
      <point x="24" y="678"/>
      <point x="35" y="667"/>
      <point x="46" y="667" type="curve" smooth="yes"/>
      <point x="157" y="663"/>
      <point x="191" y="554"/>
      <point x="191" y="309" type="curve" smooth="yes"/>
      <point x="191" y="64"/>
      <point x="157" y="-46"/>
      <point x="46" y="-50" type="curve" smooth="yes"/>
      <point x="35" y="-50"/>
      <point x="24" y="-61"/>
      <point x="24" y="-74" type="curve" smooth="yes"/>
      <point x="24" y="-135" type="line" smooth="yes"/>
      <point x="24" y="-148"/>
      <point x="35" y="-159"/>
      <point x="48" y="-159" type="curve" smooth="yes"/>
    </contour>
  </outline>
</glyph>
<glyph name="plus" format="1">
  <advance width="614"/>
  <unicode hex="002B"/>
  <outline>
    <contour>
      <point x="337" y="33" type="line" smooth="yes"/>
      <point x="351" y="33"/>
      <point x="361" y="43"/>
      <point x="361" y="57" type="curve" smooth="yes"/>
      <point x="361" y="252" type="line"/>
      <point x="552" y="252" type="line" smooth="yes"/>
      <point x="566" y="252"/>
      <point x="576" y="262"/>
      <point x="576" y="276" type="curve" smooth="yes"/>
      <point x="576" y="330" type="line" smooth="yes"/>
      <point x="576" y="343"/>
      <point x="566" y="354"/>
      <point x="552" y="354" type="curve" smooth="yes"/>
      <point x="361" y="354" type="line"/>
      <point x="361" y="543" type="line" smooth="yes"/>
      <point x="361" y="557"/>
      <point x="351" y="567"/>
      <point x="337" y="567" type="curve" smooth="yes"/>
      <point x="277" y="567" type="line" smooth="yes"/>
      <point x="264" y="567"/>
      <point x="253" y="557"/>
      <point x="253" y="543" type="curve" smooth="yes"/>
      <point x="253" y="354" type="line"/>
      <point x="62" y="354" type="line" smooth="yes"/>
      <point x="48" y="354"/>
      <point x="38" y="343"/>
      <point x="38" y="330" type="curve" smooth="yes"/>
      <point x="38" y="276" type="line" smooth="yes"/>
      <point x="38" y="262"/>
      <point x="48" y="252"/>
      <point x="62" y="252" type="curve" smooth="yes"/>
      <point x="253" y="252" type="line"/>
      <point x="253" y="57" type="line" smooth="yes"/>
      <point x="253" y="43"/>
      <point x="264" y="33"/>
      <point x="277" y="33" type="curve" smooth="yes"/>
    </contour>
  </outline>
</glyph>
<glyph name="A" format="1">
  <advance width="694"/>
  <unicode hex="0041"/>
  <outline>
    <contour>
      <point x="124" y="0" type="line" smooth="yes"/>
      <point x="142" y="0"/>
      <point x="150" y="12"/>
      <point x="153" y="19" type="curve" smooth="yes"/>
      <point x="199" y="140" type="line"/>
      <point x="495" y="140" type="line"/>
      <point x="541" y="19" type="line" smooth="yes"/>
      <point x="544" y="12"/>
      <point x="552" y="0"/>
      <point x="570" y="0" type="curve" smooth="yes"/>
      <point x="659" y="0" type="line" smooth="yes"/>
      <point x="670" y="0"/>
      <point x="680" y="9"/>
      <point x="680" y="21" type="curve" smooth="yes"/>
      <point x="680" y="23"/>
      <point x="679" y="27"/>
      <point x="678" y="30" type="curve" smooth="yes"/>
      <point x="438" y="675" type="line"/>
      <point x="433" y="688"/>
      <point x="423" y="700"/>
      <point x="402" y="700" type="curve" smooth="yes"/>
      <point x="292" y="700" type="line" smooth="yes"/>
      <point x="271" y="700"/>
      <point x="261" y="688"/>
      <point x="256" y="675" type="curve"/>
      <point x="16" y="30" type="line" smooth="yes"/>
      <point x="15" y="27"/>
      <point x="14" y="23"/>
      <point x="14" y="21" type="curve" smooth="yes"/>
      <point x="14" y="9"/>
      <point x="23" y="0"/>
      <point x="35" y="0" type="curve" smooth="yes"/>
    </contour>
    <contour>
      <point x="347" y="564" type="line"/>
      <point x="460" y="256" type="line"/>
      <point x="234" y="256" type="line"/>
    </contour>
  </outline>
</glyph>
<glyph name="B" format="1">
  <advance width="687"/>
  <unicode hex="0042"/>
  <outline>
    <contour>
      <point x="401" y="0" type="line" smooth="yes"/>
      <point x="556" y="0"/>
      <point x="640" y="86"/>
      <point x="640" y="207" type="curve" smooth="yes"/>
      <point x="640" y="284"/>
      <point x="593" y="343"/>
      <point x="541" y="367" type="curve"/>
      <point x="577" y="385"/>
      <point x="625" y="431"/>
      <point x="625" y="508" type="curve" smooth="yes"/>
      <point x="625" y="622"/>
      <point x="554" y="700"/>
      <point x="393" y="700" type="curve" smooth="yes"/>
      <point x="102" y="700" type="line" smooth="yes"/>
      <point x="88" y="700"/>
      <point x="78" y="690"/>
      <point x="78" y="675" type="curve" smooth="yes"/>
      <point x="78" y="24" type="line" smooth="yes"/>
      <point x="78" y="10"/>
      <point x="88" y="0"/>
      <point x="102" y="0" type="curve" smooth="yes"/>
    </contour>
    <contour>
      <point x="219" y="309" type="line"/>
      <point x="384" y="309" type="line" smooth="yes"/>
      <point x="455" y="309"/>
      <point x="494" y="265"/>
      <point x="494" y="208" type="curve" smooth="yes"/>
      <point x="494" y="152"/>
      <point x="456" y="107"/>
      <point x="384" y="107" type="curve" smooth="yes"/>
      <point x="219" y="107" type="line"/>
    </contour>
    <contour>
      <point x="219" y="593" type="line"/>
      <point x="375" y="593" type="line" smooth="yes"/>
      <point x="445" y="593"/>
      <point x="480" y="560"/>
      <point x="480" y="505" type="curve" smooth="yes"/>
      <point x="480" y="450"/>
      <point x="445" y="413"/>
      <point x="375" y="413" type="curve" smooth="yes"/>
      <point x="219" y="413" type="line"/>
    </contour>
  </outline>
</glyph>
<glyph name="K" format="1">
  <advance width="633"/>
  <unicode hex="004B"/>
  <outline>
    <contour>
      <point x="192" y="0" type="line" smooth="yes"/>
      <point x="207" y="0"/>
      <point x="217" y="10"/>
      <point x="217" y="24" type="curve" smooth="yes"/>
      <point x="217" y="282" type="line"/>
      <point x="457" y="18" type="line" smooth="yes"/>
      <point x="461" y="14"/>
      <point x="472" y="0"/>
      <point x="496" y="0" type="curve" smooth="yes"/>
      <point x="601" y="0" type="line" smooth="yes"/>
      <point x="612" y="0"/>
      <point x="622" y="9"/>
      <point x="622" y="21" type="curve" smooth="yes"/>
      <point x="622" y="24"/>
      <point x="621" y="29"/>
      <point x="617" y="34" type="curve" smooth="yes"/>
      <point x="325" y="365" type="line"/>
      <point x="598" y="667" type="line" smooth="yes"/>
      <point x="601" y="671"/>
      <point x="602" y="675"/>
      <point x="602" y="679" type="curve" smooth="yes"/>
      <point x="602" y="691"/>
      <point x="592" y="700"/>
      <point x="581" y="700" type="curve" smooth="yes"/>
      <point x="480" y="700" type="line" smooth="yes"/>
      <point x="458" y="700"/>
      <point x="446" y="689"/>
      <point x="441" y="682" type="curve" smooth="yes"/>
      <point x="217" y="441" type="line"/>
      <point x="217" y="675" type="line" smooth="yes"/>
      <point x="217" y="690"/>
      <point x="207" y="700"/>
      <point x="192" y="700" type="curve" smooth="yes"/>
      <point x="102" y="700" type="line" smooth="yes"/>
      <point x="88" y="700"/>
      <point x="78" y="690"/>
      <point x="78" y="675" type="curve" smooth="yes"/>
      <point x="78" y="24" type="line" smooth="yes"/>
      <point x="78" y="10"/>
      <point x="88" y="0"/>
      <point x="102" y="0" type="curve" smooth="yes"/>
    </contour>
  </outline>
</glyph>
<glyph name="L" format="1">
  <advance width="581"/>
  <unicode hex="004C"/>
  <outline>
    <contour>
      <point x="537" y="0" type="line" smooth="yes"/>
      <point x="552" y="0"/>
      <point x="562" y="10"/>
      <point x="562" y="24" type="curve" smooth="yes"/>
      <point x="562" y="96" type="line" smooth="yes"/>
      <point x="562" y="110"/>
      <point x="552" y="120"/>
      <point x="537" y="120" type="curve" smooth="yes"/>
      <point x="221" y="120" type="line"/>
      <point x="221" y="676" type="line" smooth="yes"/>
      <point x="221" y="690"/>
      <point x="210" y="700"/>
      <point x="197" y="700" type="curve" smooth="yes"/>
      <point x="102" y="700" type="line" smooth="yes"/>
      <point x="88" y="700"/>
      <point x="78" y="690"/>
      <point x="78" y="676" type="curve" smooth="yes"/>
      <point x="78" y="24" type="line" smooth="yes"/>
      <point x="78" y="10"/>
      <point x="88" y="0"/>
      <point x="102" y="0" type="curve" smooth="yes"/>
    </contour>
  </outline>
</glyph>
<glyph name="O" format="1">
  <advance width="695"/>
  <unicode hex="004F"/>
  <outline>
    <contour>
      <point x="527" y="-10"/>
      <point x="635" y="79"/>
      <point x="641" y="264" type="curve" smooth="yes"/>
      <point x="643" y="321"/>
      <point x="643" y="376"/>
      <point x="641" y="435" type="curve" smooth="yes"/>
      <point x="636" y="616"/>
      <point x="521" y="710"/>
      <point x="348" y="710" type="curve" smooth="yes"/>
      <point x="176" y="710"/>
      <point x="61" y="616"/>
      <point x="55" y="435" type="curve" smooth="yes"/>
      <point x="53" y="376"/>
      <point x="53" y="321"/>
      <point x="55" y="264" type="curve" smooth="yes"/>
      <point x="61" y="79"/>
      <point x="170" y="-10"/>
      <point x="348" y="-10" type="curve" smooth="yes"/>
    </contour>
    <contour>
      <point x="263" y="106"/>
      <point x="204" y="155"/>
      <point x="200" y="269" type="curve" smooth="yes"/>
      <point x="198" y="328"/>
      <point x="198" y="373"/>
      <point x="200" y="431" type="curve" smooth="yes"/>
      <point x="204" y="545"/>
      <point x="264" y="594"/>
      <point x="348" y="594" type="curve" smooth="yes"/>
      <point x="432" y="594"/>
      <point x="492" y="545"/>
      <point x="496" y="431" type="curve" smooth="yes"/>
      <point x="498" y="373"/>
      <point x="498" y="328"/>
      <point x="496" y="269" type="curve" smooth="yes"/>
      <point x="492" y="155"/>
      <point x="433" y="106"/>
      <point x="348" y="106" type="curve" smooth="yes"/>
    </contour>
  </outline>
</glyph>
<glyph name="W" format="1">
  <advance width="816"/>
  <unicode hex="0057"/>
  <outline>
    <contour>
      <point x="261" y="0" type="line" smooth="yes"/>
      <point x="282" y="0"/>
      <point x="292" y="13"/>
      <point x="296" y="25" type="curve" smooth="yes"/>
      <point x="408" y="357" type="line"/>
      <point x="520" y="25" type="line" smooth="yes"/>
      <point x="524" y="13"/>
      <point x="535" y="0"/>
      <point x="555" y="0" type="curve" smooth="yes"/>
      <point x="623" y="0" type="line" smooth="yes"/>
      <point x="644" y="0"/>
      <point x="656" y="12"/>
      <point x="659" y="30" type="curve"/>
      <point x="777" y="671" type="line"/>
      <point x="778" y="674"/>
      <point x="778" y="678"/>
      <point x="778" y="679" type="curve" smooth="yes"/>
      <point x="778" y="691"/>
      <point x="769" y="700"/>
      <point x="758" y="700" type="curve" smooth="yes"/>
      <point x="668" y="700" type="line" smooth="yes"/>
      <point x="651" y="700"/>
      <point x="642" y="694"/>
      <point x="640" y="680" type="curve" smooth="yes"/>
      <point x="558" y="230" type="line"/>
      <point x="468" y="520" type="line" smooth="yes"/>
      <point x="465" y="530"/>
      <point x="456" y="545"/>
      <point x="436" y="545" type="curve" smooth="yes"/>
      <point x="381" y="545" type="line" smooth="yes"/>
      <point x="360" y="545"/>
      <point x="352" y="530"/>
      <point x="348" y="520" type="curve" smooth="yes"/>
      <point x="259" y="230" type="line"/>
      <point x="176" y="680" type="line" smooth="yes"/>
      <point x="174" y="694"/>
      <point x="166" y="700"/>
      <point x="149" y="700" type="curve" smooth="yes"/>
      <point x="59" y="700" type="line" smooth="yes"/>
      <point x="47" y="700"/>
      <point x="38" y="691"/>
      <point x="38" y="679" type="curve" smooth="yes"/>
      <point x="38" y="678"/>
      <point x="39" y="674"/>
      <point x="39" y="671" type="curve"/>
      <point x="157" y="30" type="line"/>
      <point x="161" y="12"/>
      <point x="172" y="0"/>
      <point x="193" y="0" type="curve" smooth="yes"/>
    </contour>
  </outline>
</glyph>
<glyph name="p" format="1">
  <advance width="614"/>
  <unicode hex="0070"/>
  <outline>
    <contour>
      <point x="178" y="-190" type="line" smooth="yes"/>
      <point x="192" y="-190"/>
      <point x="202" y="-180"/>
      <point x="202" y="-166" type="curve" smooth="yes"/>
      <point x="202" y="61" type="line"/>
      <point x="234" y="18"/>
      <point x="284" y="-10"/>
      <point x="356" y="-10" type="curve" smooth="yes"/>
      <point x="495" y="-10"/>
      <point x="564" y="90"/>
      <point x="569" y="224" type="curve" smooth="yes"/>
      <point x="570" y="248"/>
      <point x="570" y="271"/>
      <point x="569" y="296" type="curve" smooth="yes"/>
      <point x="564" y="433"/>
      <point x="495" y="530"/>
      <point x="356" y="530" type="curve" smooth="yes"/>
      <point x="278" y="530"/>
      <point x="228" y="499"/>
      <point x="196" y="456" type="curve"/>
      <point x="196" y="496" type="line" smooth="yes"/>
      <point x="196" y="510"/>
      <point x="186" y="520"/>
      <point x="172" y="520" type="curve" smooth="yes"/>
      <point x="91" y="520" type="line" smooth="yes"/>
      <point x="77" y="520"/>
      <point x="67" y="510"/>
      <point x="67" y="496" type="curve" smooth="yes"/>
      <point x="67" y="-166" type="line" smooth="yes"/>
      <point x="67" y="-180"/>
      <point x="77" y="-190"/>
      <point x="91" y="-190" type="curve" smooth="yes"/>
    </contour>
    <contour>
      <point x="238" y="98"/>
      <point x="203" y="158"/>
      <point x="201" y="218" type="curve" smooth="yes"/>
      <point x="200" y="243"/>
      <point x="200" y="271"/>
      <point x="201" y="295" type="curve" smooth="yes"/>
      <point x="204" y="358"/>
      <point x="235" y="422"/>
      <point x="317" y="422" type="curve" smooth="yes"/>
      <point x="400" y="422"/>
      <point x="426" y="361"/>
      <point x="430" y="290" type="curve" smooth="yes"/>
      <point x="432" y="270"/>
      <point x="432" y="250"/>
      <point x="430" y="230" type="curve" smooth="yes"/>
      <point x="426" y="159"/>
      <point x="400" y="98"/>
      <point x="317" y="98" type="curve" smooth="yes"/>
    </contour>
  </outline>
</glyph>
<glyph name="x" format="1">
  <advance width="565"/>
  <unicode hex="0078"/>
  <outline>
    <contour>
      <point x="133" y="0" type="line" smooth="yes"/>
      <point x="148" y="0"/>
      <point x="155" y="9"/>
      <point x="160" y="16" type="curve" smooth="yes"/>
      <point x="281" y="174" type="line"/>
      <point x="401" y="16" type="line" smooth="yes"/>
      <point x="406" y="9"/>
      <point x="413" y="0"/>
      <point x="428" y="0" type="curve" smooth="yes"/>
      <point x="520" y="0" type="line" smooth="yes"/>
      <point x="532" y="0"/>
      <point x="542" y="10"/>
      <point x="542" y="22" type="curve" smooth="yes"/>
      <point x="542" y="26"/>
      <point x="541" y="32"/>
      <point x="536" y="39" type="curve" smooth="yes"/>
      <point x="364" y="266" type="line"/>
      <point x="524" y="481" type="line" smooth="yes"/>
      <point x="529" y="488"/>
      <point x="530" y="493"/>
      <point x="530" y="499" type="curve" smooth="yes"/>
      <point x="530" y="510"/>
      <point x="521" y="520"/>
      <point x="509" y="520" type="curve" smooth="yes"/>
      <point x="424" y="520" type="line" smooth="yes"/>
      <point x="408" y="520"/>
      <point x="401" y="509"/>
      <point x="396" y="503" type="curve" smooth="yes"/>
      <point x="285" y="354" type="line"/>
      <point x="173" y="503" type="line" smooth="yes"/>
      <point x="168" y="510"/>
      <point x="161" y="520"/>
      <point x="145" y="520" type="curve" smooth="yes"/>
      <point x="56" y="520" type="line" smooth="yes"/>
      <point x="45" y="520"/>
      <point x="35" y="510"/>
      <point x="35" y="498" type="curve" smooth="yes"/>
      <point x="35" y="493"/>
      <point x="36" y="488"/>
      <point x="41" y="481" type="curve" smooth="yes"/>
      <point x="199" y="267" type="line"/>
      <point x="28" y="39" type="line" smooth="yes"/>
      <point x="23" y="32"/>
      <point x="22" y="26"/>
      <point x="22" y="22" type="curve" smooth="yes"/>
      <point x="22" y="10"/>
      <point x="32" y="0"/>
      <point x="44" y="0" type="curve" smooth="yes"/>
    </contour>
  </outline>
</glyph>
<glyph name="z" format="1">
  <advance width="532"/>
  <unicode hex="007A"/>
  <outline>
    <contour>
      <point x="472" y="0" type="line" smooth="yes"/>
      <point x="486" y="0"/>
      <point x="497" y="10"/>
      <point x="497" y="24" type="curve" smooth="yes"/>
      <point x="497" y="81" type="line" smooth="yes"/>
      <point x="497" y="95"/>
      <point x="486" y="106"/>
      <point x="472" y="106" type="curve" smooth="yes"/>
      <point x="213" y="106" type="line"/>
      <point x="462" y="403" type="line" smooth="yes"/>
      <point x="470" y="413"/>
      <point x="476" y="422"/>
      <point x="476" y="434" type="curve" smooth="yes"/>
      <point x="476" y="496" type="line" smooth="yes"/>
      <point x="476" y="510"/>
      <point x="466" y="520"/>
      <point x="452" y="520" type="curve" smooth="yes"/>
      <point x="72" y="520" type="line" smooth="yes"/>
      <point x="58" y="520"/>
      <point x="48" y="510"/>
      <point x="48" y="496" type="curve" smooth="yes"/>
      <point x="48" y="439" type="line" smooth="yes"/>
      <point x="48" y="425"/>
      <point x="58" y="415"/>
      <point x="72" y="415" type="curve" smooth="yes"/>
      <point x="308" y="415" type="line"/>
      <point x="54" y="115" type="line" smooth="yes"/>
      <point x="46" y="105"/>
      <point x="39" y="95"/>
      <point x="39" y="82" type="curve" smooth="yes"/>
      <point x="39" y="24" type="line" smooth="yes"/>
      <point x="39" y="10"/>
      <point x="49" y="0"/>
      <point x="63" y="0" type="curve" smooth="yes"/>
    </contour>
  </outline>
</glyph>
<glyph name="cent" format="1">
  <advance width="579"/>
  <unicode hex="00A2"/>
  <outline>
    <contour>
      <point x="324" y="-100" type="line"/>
      <point x="338" y="-100"/>
      <point x="349" y="-90"/>
      <point x="349" y="-76" type="curve"/>
      <point x="349" y="-4" type="line"/>
      <point x="488" y="18"/>
      <point x="534" y="120"/>
      <point x="536" y="164" type="curve" smooth="yes"/>
      <point x="537" y="177"/>
      <point x="526" y="188"/>
      <point x="512" y="188" type="curve"/>
      <point x="423" y="188" type="line"/>
      <point x="409" y="188"/>
      <point x="402" y="181"/>
      <point x="397" y="167" type="curve" smooth="yes"/>
      <point x="377" y="115"/>
      <point x="342" y="95"/>
      <point x="291" y="95" type="curve" smooth="yes"/>
      <point x="231" y="95"/>
      <point x="189" y="134"/>
      <point x="186" y="225" type="curve" smooth="yes"/>
      <point x="185" y="244"/>
      <point x="185" y="271"/>
      <point x="186" y="295" type="curve" smooth="yes"/>
      <point x="188" y="385"/>
      <point x="231" y="425"/>
      <point x="291" y="425" type="curve" smooth="yes"/>
      <point x="340" y="425"/>
      <point x="377" y="405"/>
      <point x="397" y="353" type="curve" smooth="yes"/>
      <point x="403" y="339"/>
      <point x="409" y="332"/>
      <point x="423" y="332" type="curve"/>
      <point x="512" y="332" type="line"/>
      <point x="526" y="332"/>
      <point x="537" y="343"/>
      <point x="536" y="356" type="curve" smooth="yes"/>
      <point x="534" y="402"/>
      <point x="485" y="502"/>
      <point x="349" y="524" type="curve"/>
      <point x="349" y="586" type="line"/>
      <point x="349" y="600"/>
      <point x="338" y="610"/>
      <point x="324" y="610" type="curve"/>
      <point x="253" y="610" type="line"/>
      <point x="239" y="610"/>
      <point x="229" y="600"/>
      <point x="229" y="586" type="curve"/>
      <point x="229" y="523" type="line"/>
      <point x="121" y="504"/>
      <point x="52" y="424"/>
      <point x="48" y="300" type="curve" smooth="yes"/>
      <point x="47" y="279"/>
      <point x="47" y="240"/>
      <point x="48" y="220" type="curve" smooth="yes"/>
      <point x="52" y="96"/>
      <point x="121" y="16"/>
      <point x="229" y="-3" type="curve"/>
      <point x="229" y="-76" type="line"/>
      <point x="229" y="-90"/>
      <point x="239" y="-100"/>
      <point x="253" y="-100" type="curve"/>
    </contour>
  </outline>
</glyph>
<glyph name="sterling" format="1">
  <advance width="700"/>
  <unicode hex="00A3"/>
  <outline>
    <contour>
      <point x="569" y="-7"/>
      <point x="648" y="57"/>
      <point x="651" y="174" type="curve" smooth="yes"/>
      <point x="651" y="184"/>
      <point x="644" y="193"/>
      <point x="632" y="193" type="curve" smooth="yes"/>
      <point x="563" y="193" type="line" smooth="yes"/>
      <point x="553" y="193"/>
      <point x="546" y="184"/>
      <point x="544" y="178" type="curve" smooth="yes"/>
      <point x="532" y="138"/>
      <point x="513" y="108"/>
      <point x="462" y="108" type="curve" smooth="yes"/>
      <point x="397" y="108"/>
      <point x="365" y="167"/>
      <point x="288" y="182" type="curve"/>
      <point x="288" y="219"/>
      <point x="283" y="253"/>
      <point x="279" y="288" type="curve"/>
      <point x="442" y="288" type="line" smooth="yes"/>
      <point x="456" y="288"/>
      <point x="466" y="298"/>
      <point x="466" y="312" type="curve" smooth="yes"/>
      <point x="466" y="368" type="line" smooth="yes"/>
      <point x="466" y="382"/>
      <point x="456" y="392"/>
      <point x="442" y="392" type="curve" smooth="yes"/>
      <point x="272" y="392" type="line"/>
      <point x="269" y="410"/>
      <point x="269" y="430"/>
      <point x="269" y="451" type="curve" smooth="yes"/>
      <point x="269" y="537"/>
      <point x="305" y="595"/>
      <point x="381" y="595" type="curve" smooth="yes"/>
      <point x="448" y="595"/>
      <point x="484" y="556"/>
      <point x="499" y="485" type="curve" smooth="yes"/>
      <point x="504" y="469"/>
      <point x="515" y="461"/>
      <point x="530" y="461" type="curve" smooth="yes"/>
      <point x="625" y="461" type="line" smooth="yes"/>
      <point x="637" y="461"/>
      <point x="647" y="471"/>
      <point x="647" y="483" type="curve" smooth="yes"/>
      <point x="644" y="615"/>
      <point x="544" y="711"/>
      <point x="382" y="711" type="curve" smooth="yes"/>
      <point x="210" y="711"/>
      <point x="124" y="608"/>
      <point x="124" y="452" type="curve" smooth="yes"/>
      <point x="124" y="430"/>
      <point x="124" y="410"/>
      <point x="126" y="392" type="curve"/>
      <point x="71" y="392" type="line" smooth="yes"/>
      <point x="57" y="392"/>
      <point x="46" y="382"/>
      <point x="46" y="368" type="curve" smooth="yes"/>
      <point x="46" y="312" type="line" smooth="yes"/>
      <point x="46" y="298"/>
      <point x="57" y="288"/>
      <point x="71" y="288" type="curve" smooth="yes"/>
      <point x="147" y="288" type="line"/>
      <point x="152" y="250"/>
      <point x="158" y="217"/>
      <point x="159" y="184" type="curve"/>
      <point x="94" y="163"/>
      <point x="49" y="107"/>
      <point x="46" y="19" type="curve" smooth="yes"/>
      <point x="46" y="9"/>
      <point x="54" y="0"/>
      <point x="65" y="0" type="curve" smooth="yes"/>
      <point x="143" y="0" type="line" smooth="yes"/>
      <point x="156" y="0"/>
      <point x="159" y="10"/>
      <point x="161" y="16" type="curve" smooth="yes"/>
      <point x="171" y="55"/>
      <point x="187" y="81"/>
      <point x="234" y="81" type="curve" smooth="yes"/>
      <point x="313" y="81"/>
      <point x="363" y="-7"/>
      <point x="480" y="-7" type="curve" smooth="yes"/>
    </contour>
  </outline>
</glyph>
<glyph name="IJ" format="1">
  <advance width="680"/>
  <unicode hex="0132"/>
  <outline>
    <contour>
      <point x="504" y="-10"/>
      <point x="608" y="77"/>
      <point x="608" y="256" type="curve" smooth="yes"/>
      <point x="608" y="675" type="line" smooth="yes"/>
      <point x="608" y="690"/>
      <point x="598" y="700"/>
      <point x="583" y="700" type="curve" smooth="yes"/>
      <point x="488" y="700" type="line" smooth="yes"/>
      <point x="474" y="700"/>
      <point x="463" y="690"/>
      <point x="463" y="676" type="curve"/>
      <point x="463" y="274" type="line" smooth="yes"/>
      <point x="463" y="173"/>
      <point x="418" y="115"/>
      <point x="326" y="115" type="curve" smooth="yes"/>
      <point x="312" y="115"/>
      <point x="302" y="104"/>
      <point x="302" y="90" type="curve" smooth="yes"/>
      <point x="302" y="14" type="line" smooth="yes"/>
      <point x="302" y="0"/>
      <point x="312" y="-10"/>
      <point x="326" y="-10" type="curve" smooth="yes"/>
    </contour>
    <contour>
      <point x="198" y="0" type="line" smooth="yes"/>
      <point x="212" y="0"/>
      <point x="222" y="10"/>
      <point x="222" y="24" type="curve" smooth="yes"/>
      <point x="222" y="676" type="line" smooth="yes"/>
      <point x="222" y="690"/>
      <point x="212" y="700"/>
      <point x="198" y="700" type="curve" smooth="yes"/>
      <point x="102" y="700" type="line" smooth="yes"/>
      <point x="88" y="700"/>
      <point x="78" y="690"/>
      <point x="78" y="676" type="curve" smooth="yes"/>
      <point x="78" y="24" type="line" smooth="yes"/>
      <point x="78" y="10"/>
      <point x="88" y="0"/>
      <point x="102" y="0" type="curve" smooth="yes"/>
    </contour>
  </outline>
</glyph>
<glyph name="tbar" format="1">
  <advance width="436"/>
  <unicode hex="0167"/>
  <outline>
    <contour>
      <point x="388" y="0" type="line" smooth="yes"/>
      <point x="401" y="0"/>
      <point x="412" y="10"/>
      <point x="412" y="24" type="curve" smooth="yes"/>
      <point x="412" y="87" type="line" smooth="yes"/>
      <point x="412" y="101"/>
      <point x="401" y="111"/>
      <point x="388" y="111" type="curve" smooth="yes"/>
      <point x="318" y="111" type="line" smooth="yes"/>
      <point x="271" y="111"/>
      <point x="254" y="143"/>
      <point x="254" y="198" type="curve" smooth="yes"/>
      <point x="254" y="288" type="line"/>
      <point x="378" y="288" type="line" smooth="yes"/>
      <point x="392" y="288"/>
      <point x="402" y="298"/>
      <point x="402" y="312" type="curve" smooth="yes"/>
      <point x="402" y="341" type="line" smooth="yes"/>
      <point x="402" y="355"/>
      <point x="392" y="365"/>
      <point x="378" y="365" type="curve" smooth="yes"/>
      <point x="254" y="365" type="line"/>
      <point x="254" y="442" type="line"/>
      <point x="378" y="442" type="line" smooth="yes"/>
      <point x="392" y="442"/>
      <point x="402" y="453"/>
      <point x="402" y="467" type="curve" smooth="yes"/>
      <point x="402" y="496" type="line" smooth="yes"/>
      <point x="402" y="510"/>
      <point x="392" y="520"/>
      <point x="378" y="520" type="curve" smooth="yes"/>
      <point x="254" y="520" type="line"/>
      <point x="254" y="686" type="line" smooth="yes"/>
      <point x="254" y="700"/>
      <point x="243" y="710"/>
      <point x="229" y="710" type="curve" smooth="yes"/>
      <point x="147" y="710" type="line" smooth="yes"/>
      <point x="133" y="710"/>
      <point x="123" y="700"/>
      <point x="123" y="686" type="curve" smooth="yes"/>
      <point x="123" y="520" type="line"/>
      <point x="44" y="520" type="line" smooth="yes"/>
      <point x="30" y="520"/>
      <point x="20" y="510"/>
      <point x="20" y="496" type="curve" smooth="yes"/>
      <point x="20" y="467" type="line" smooth="yes"/>
      <point x="20" y="453"/>
      <point x="30" y="442"/>
      <point x="44" y="442" type="curve" smooth="yes"/>
      <point x="123" y="442" type="line"/>
      <point x="123" y="365" type="line"/>
      <point x="44" y="365" type="line" smooth="yes"/>
      <point x="30" y="365"/>
      <point x="20" y="355"/>
      <point x="20" y="341" type="curve" smooth="yes"/>
      <point x="20" y="312" type="line" smooth="yes"/>
      <point x="20" y="298"/>
      <point x="30" y="288"/>
      <point x="44" y="288" type="curve" smooth="yes"/>
      <point x="123" y="288" type="line"/>
      <point x="123" y="187" type="line" smooth="yes"/>
      <point x="123" y="64"/>
      <point x="184" y="0"/>
      <point x="306" y="0" type="curve" smooth="yes"/>
    </contour>
  </outline>
</glyph>
<glyph name="longs" format="1">
  <advance width="320"/>
  <unicode hex="017F"/>
  <outline>
    <contour>
      <point x="230" y="0" type="line" smooth="yes"/>
      <point x="244" y="0"/>
      <point x="254" y="10"/>
      <point x="254" y="24" type="curve" smooth="yes"/>
      <point x="254" y="555" type="line"/>
      <point x="254" y="600"/>
      <point x="264" y="633"/>
      <point x="324" y="633" type="curve" smooth="yes"/>
      <point x="388" y="633" type="line" smooth="yes"/>
      <point x="402" y="633"/>
      <point x="412" y="644"/>
      <point x="412" y="657" type="curve" smooth="yes"/>
      <point x="412" y="716" type="line" smooth="yes"/>
      <point x="412" y="730"/>
      <point x="402" y="740"/>
      <point x="388" y="740" type="curve" smooth="yes"/>
      <point x="319" y="740" type="line" smooth="yes"/>
      <point x="188" y="740"/>
      <point x="123" y="681"/>
      <point x="123" y="557" type="curve" smooth="yes"/>
      <point x="123" y="520" type="line"/>
      <point x="42" y="520" type="line" smooth="yes"/>
      <point x="28" y="520"/>
      <point x="18" y="510"/>
      <point x="18" y="496" type="curve" smooth="yes"/>
      <point x="18" y="437" type="line" smooth="yes"/>
      <point x="18" y="424"/>
      <point x="28" y="413"/>
      <point x="42" y="413" type="curve" smooth="yes"/>
      <point x="123" y="413" type="line"/>
      <point x="123" y="24" type="line" smooth="yes"/>
      <point x="123" y="10"/>
      <point x="133" y="0"/>
      <point x="147" y="0" type="curve" smooth="yes"/>
    </contour>
  </outline>
</glyph>
<glyph name="florin" format="1">
  <advance width="448"/>
  <unicode hex="0192"/>
  <outline>
    <contour>
      <point x="55" y="-225" type="line" smooth="yes"/>
      <point x="206" y="-225"/>
      <point x="266" y="-147"/>
      <point x="266" y="-13" type="curve" smooth="yes"/>
      <point x="266" y="413" type="line"/>
      <point x="391" y="413" type="line" smooth="yes"/>
      <point x="404" y="413"/>
      <point x="415" y="424"/>
      <point x="415" y="437" type="curve" smooth="yes"/>
      <point x="415" y="496" type="line" smooth="yes"/>
      <point x="415" y="510"/>
      <point x="404" y="520"/>
      <point x="391" y="520" type="curve" smooth="yes"/>
      <point x="266" y="520" type="line"/>
      <point x="266" y="555" type="line" smooth="yes"/>
      <point x="266" y="606"/>
      <point x="283" y="633"/>
      <point x="337" y="633" type="curve" smooth="yes"/>
      <point x="401" y="633" type="line" smooth="yes"/>
      <point x="415" y="633"/>
      <point x="425" y="644"/>
      <point x="425" y="657" type="curve" smooth="yes"/>
      <point x="425" y="716" type="line" smooth="yes"/>
      <point x="425" y="730"/>
      <point x="415" y="740"/>
      <point x="401" y="740" type="curve" smooth="yes"/>
      <point x="332" y="740" type="line" smooth="yes"/>
      <point x="200" y="740"/>
      <point x="135" y="681"/>
      <point x="135" y="560" type="curve" smooth="yes"/>
      <point x="135" y="520" type="line"/>
      <point x="55" y="520" type="line" smooth="yes"/>
      <point x="41" y="520"/>
      <point x="31" y="510"/>
      <point x="31" y="496" type="curve" smooth="yes"/>
      <point x="31" y="437" type="line" smooth="yes"/>
      <point x="31" y="424"/>
      <point x="41" y="413"/>
      <point x="55" y="413" type="curve" smooth="yes"/>
      <point x="135" y="413" type="line"/>
      <point x="135" y="-9" type="line" smooth="yes"/>
      <point x="135" y="-70"/>
      <point x="120" y="-107"/>
      <point x="55" y="-107" type="curve" smooth="yes"/>
      <point x="34" y="-107" type="line" smooth="yes"/>
      <point x="20" y="-107"/>
      <point x="10" y="-117"/>
      <point x="10" y="-131" type="curve" smooth="yes"/>
      <point x="10" y="-201" type="line"/>
      <point x="10" y="-215"/>
      <point x="20" y="-225"/>
      <point x="34" y="-225" type="curve" smooth="yes"/>
    </contour>
  </outline>
</glyph>
<glyph name="De-cy" format="1">
  <advance width="739"/>
  <unicode hex="0414"/>
  <outline>
    <contour>
      <point x="136" y="-110" type="line" smooth="yes"/>
      <point x="151" y="-110"/>
      <point x="161" y="-100"/>
      <point x="161" y="-86" type="curve" smooth="yes"/>
      <point x="161" y="0" type="line"/>
      <point x="550" y="0" type="line"/>
      <point x="550" y="-86" type="line" smooth="yes"/>
      <point x="550" y="-100"/>
      <point x="560" y="-110"/>
      <point x="574" y="-110" type="curve" smooth="yes"/>
      <point x="666" y="-110" type="line" smooth="yes"/>
      <point x="681" y="-110"/>
      <point x="691" y="-100"/>
      <point x="691" y="-86" type="curve" smooth="yes"/>
      <point x="691" y="103" type="line" smooth="yes"/>
      <point x="691" y="116"/>
      <point x="681" y="127"/>
      <point x="666" y="127" type="curve" smooth="yes"/>
      <point x="637" y="127" type="line"/>
      <point x="637" y="676" type="line" smooth="yes"/>
      <point x="637" y="690"/>
      <point x="627" y="700"/>
      <point x="612" y="700" type="curve" smooth="yes"/>
      <point x="156" y="700" type="line"/>
      <point x="143" y="700"/>
      <point x="132" y="690"/>
      <point x="132" y="676" type="curve" smooth="yes"/>
      <point x="132" y="222" type="line" smooth="yes"/>
      <point x="132" y="156"/>
      <point x="101" y="128"/>
      <point x="56" y="127" type="curve" smooth="yes"/>
      <point x="44" y="127" type="line" smooth="yes"/>
      <point x="30" y="127"/>
      <point x="20" y="116"/>
      <point x="20" y="103" type="curve" smooth="yes"/>
      <point x="20" y="-86" type="line" smooth="yes"/>
      <point x="20" y="-100"/>
      <point x="30" y="-110"/>
      <point x="44" y="-110" type="curve" smooth="yes"/>
    </contour>
    <contour>
      <point x="254" y="132"/>
      <point x="273" y="163"/>
      <point x="273" y="216" type="curve" smooth="yes"/>
      <point x="273" y="573" type="line"/>
      <point x="496" y="573" type="line"/>
      <point x="496" y="127" type="line"/>
      <point x="251" y="127" type="line"/>
    </contour>
  </outline>
</glyph>
<glyph name="zhe-cy" format="1">
  <advance width="695"/>
  <unicode hex="0436"/>
  <outline>
    <contour>
      <point x="134" y="0" type="line" smooth="yes"/>
      <point x="150" y="0"/>
      <point x="158" y="11"/>
      <point x="162" y="16" type="curve" smooth="yes"/>
      <point x="286" y="205" type="line"/>
      <point x="286" y="24" type="line" smooth="yes"/>
      <point x="286" y="10"/>
      <point x="296" y="0"/>
      <point x="310" y="0" type="curve" smooth="yes"/>
      <point x="385" y="0" type="line" smooth="yes"/>
      <point x="399" y="0"/>
      <point x="409" y="10"/>
      <point x="409" y="24" type="curve" smooth="yes"/>
      <point x="409" y="205" type="line"/>
      <point x="533" y="16" type="line" smooth="yes"/>
      <point x="538" y="11"/>
      <point x="545" y="0"/>
      <point x="561" y="0" type="curve" smooth="yes"/>
      <point x="648" y="0" type="line" smooth="yes"/>
      <point x="659" y="0"/>
      <point x="669" y="10"/>
      <point x="669" y="22" type="curve" smooth="yes"/>
      <point x="669" y="27"/>
      <point x="668" y="32"/>
      <point x="663" y="39" type="curve" smooth="yes"/>
      <point x="505" y="274" type="line"/>
      <point x="647" y="480" type="line" smooth="yes"/>
      <point x="652" y="487"/>
      <point x="654" y="493"/>
      <point x="654" y="498" type="curve" smooth="yes"/>
      <point x="654" y="510"/>
      <point x="644" y="520"/>
      <point x="632" y="520" type="curve" smooth="yes"/>
      <point x="548" y="520" type="line" smooth="yes"/>
      <point x="533" y="520"/>
      <point x="527" y="510"/>
      <point x="522" y="504" type="curve" smooth="yes"/>
      <point x="409" y="332" type="line"/>
      <point x="409" y="496" type="line" smooth="yes"/>
      <point x="409" y="510"/>
      <point x="399" y="520"/>
      <point x="385" y="520" type="curve" smooth="yes"/>
      <point x="310" y="520" type="line" smooth="yes"/>
      <point x="296" y="520"/>
      <point x="286" y="510"/>
      <point x="286" y="496" type="curve" smooth="yes"/>
      <point x="286" y="332" type="line"/>
      <point x="173" y="504" type="line" smooth="yes"/>
      <point x="168" y="510"/>
      <point x="161" y="520"/>
      <point x="146" y="520" type="curve" smooth="yes"/>
      <point x="62" y="520" type="line" smooth="yes"/>
      <point x="50" y="520"/>
      <point x="40" y="510"/>
      <point x="40" y="498" type="curve" smooth="yes"/>
      <point x="40" y="493"/>
      <point x="42" y="487"/>
      <point x="47" y="480" type="curve" smooth="yes"/>
      <point x="190" y="274" type="line"/>
      <point x="32" y="39" type="line" smooth="yes"/>
      <point x="27" y="32"/>
      <point x="26" y="27"/>
      <point x="26" y="22" type="curve" smooth="yes"/>
      <point x="26" y="10"/>
      <point x="36" y="0"/>
      <point x="48" y="0" type="curve" smooth="yes"/>
    </contour>
  </outline>
</glyph>
<glyph name="sha-cy" format="1">
  <advance width="793"/>
  <unicode hex="0448"/>
  <outline>
    <contour>
      <point x="703" y="0" type="line" smooth="yes"/>
      <point x="717" y="0"/>
      <point x="727" y="10"/>
      <point x="727" y="24" type="curve" smooth="yes"/>
      <point x="727" y="496" type="line" smooth="yes"/>
      <point x="727" y="510"/>
      <point x="717" y="520"/>
      <point x="703" y="520" type="curve" smooth="yes"/>
      <point x="623" y="520" type="line" smooth="yes"/>
      <point x="609" y="520"/>
      <point x="599" y="510"/>
      <point x="599" y="496" type="curve" smooth="yes"/>
      <point x="599" y="107" type="line"/>
      <point x="457" y="107" type="line"/>
      <point x="457" y="496" type="line" smooth="yes"/>
      <point x="457" y="510"/>
      <point x="447" y="520"/>
      <point x="433" y="520" type="curve" smooth="yes"/>
      <point x="359" y="520" type="line" smooth="yes"/>
      <point x="345" y="520"/>
      <point x="335" y="510"/>
      <point x="335" y="496" type="curve" smooth="yes"/>
      <point x="335" y="107" type="line"/>
      <point x="192" y="107" type="line"/>
      <point x="192" y="496" type="line" smooth="yes"/>
      <point x="192" y="510"/>
      <point x="182" y="520"/>
      <point x="168" y="520" type="curve" smooth="yes"/>
      <point x="90" y="520" type="line"/>
      <point x="76" y="520"/>
      <point x="66" y="510"/>
      <point x="66" y="496" type="curve" smooth="yes"/>
      <point x="66" y="24" type="line" smooth="yes"/>
      <point x="66" y="10"/>
      <point x="76" y="0"/>
      <point x="90" y="0" type="curve" smooth="yes"/>
    </contour>
  </outline>
</glyph>
<glyph name="bullet" format="1">
  <advance width="383"/>
  <unicode hex="2022"/>
  <outline>
    <contour>
      <point x="256" y="204"/>
      <point x="308" y="257"/>
      <point x="308" y="321" type="curve" smooth="yes"/>
      <point x="308" y="385"/>
      <point x="256" y="438"/>
      <point x="192" y="438" type="curve" smooth="yes"/>
      <point x="128" y="438"/>
      <point x="75" y="385"/>
      <point x="75" y="321" type="curve" smooth="yes"/>
      <point x="75" y="257"/>
      <point x="128" y="204"/>
      <point x="192" y="204" type="curve" smooth="yes"/>
    </contour>
  </outline>
</glyph>
<glyph name="oneinferior" format="1">
  <advance width="259"/>
  <unicode hex="2081"/>
  <outline>
    <contour>
      <point x="193" y="-170" type="line" smooth="yes"/>
      <point x="206" y="-170"/>
      <point x="215" y="-161"/>
      <point x="215" y="-148" type="curve" smooth="yes"/>
      <point x="215" y="158" type="line" smooth="yes"/>
      <point x="215" y="171"/>
      <point x="206" y="180"/>
      <point x="193" y="180" type="curve" smooth="yes"/>
      <point x="148" y="180" type="line" smooth="yes"/>
      <point x="138" y="180"/>
      <point x="132" y="178"/>
      <point x="125" y="173" type="curve" smooth="yes"/>
      <point x="22" y="95" type="line" smooth="yes"/>
      <point x="12" y="87"/>
      <point x="10" y="74"/>
      <point x="18" y="64" type="curve" smooth="yes"/>
      <point x="38" y="38" type="line" smooth="yes"/>
      <point x="46" y="27"/>
      <point x="60" y="26"/>
      <point x="69" y="33" type="curve" smooth="yes"/>
      <point x="124" y="74" type="line"/>
      <point x="124" y="-148" type="line" smooth="yes"/>
      <point x="124" y="-161"/>
      <point x="133" y="-170"/>
      <point x="146" y="-170" type="curve" smooth="yes"/>
    </contour>
  </outline>
</glyph>
<glyph name="threeinferior" format="1">
  <advance width="348"/>
  <unicode hex="2083"/>
  <outline>
    <contour>
      <point x="259" y="-175"/>
      <point x="316" y="-132"/>
      <point x="316" y="-64" type="curve" smooth="yes"/>
      <point x="316" y="-6"/>
      <point x="283" y="32"/>
      <point x="217" y="40" type="curve"/>
      <point x="285" y="96" type="line" smooth="yes"/>
      <point x="297" y="107"/>
      <point x="299" y="115"/>
      <point x="299" y="128" type="curve" smooth="yes"/>
      <point x="299" y="158" type="line" smooth="yes"/>
      <point x="299" y="171"/>
      <point x="290" y="180"/>
      <point x="277" y="180" type="curve" smooth="yes"/>
      <point x="62" y="180" type="line" smooth="yes"/>
      <point x="49" y="180"/>
      <point x="40" y="171"/>
      <point x="40" y="158" type="curve"/>
      <point x="40" y="124" type="line" smooth="yes"/>
      <point x="40" y="111"/>
      <point x="49" y="102"/>
      <point x="62" y="102" type="curve" smooth="yes"/>
      <point x="184" y="102" type="line"/>
      <point x="116" y="39" type="line" smooth="yes"/>
      <point x="109" y="32"/>
      <point x="105" y="26"/>
      <point x="105" y="17" type="curve" smooth="yes"/>
      <point x="105" y="-5" type="line" smooth="yes"/>
      <point x="105" y="-18"/>
      <point x="113" y="-27"/>
      <point x="126" y="-27" type="curve" smooth="yes"/>
      <point x="169" y="-27" type="line" smooth="yes"/>
      <point x="203" y="-27"/>
      <point x="224" y="-35"/>
      <point x="224" y="-63" type="curve" smooth="yes"/>
      <point x="224" y="-86"/>
      <point x="201" y="-101"/>
      <point x="166" y="-101" type="curve" smooth="yes"/>
      <point x="120" y="-101"/>
      <point x="118" y="-86"/>
      <point x="103" y="-77" type="curve" smooth="yes"/>
      <point x="95" y="-73"/>
      <point x="85" y="-69"/>
      <point x="74" y="-69" type="curve"/>
      <point x="41" y="-69" type="line" smooth="yes"/>
      <point x="35" y="-69"/>
      <point x="23" y="-75"/>
      <point x="24" y="-88" type="curve" smooth="yes"/>
      <point x="27" y="-126"/>
      <point x="66" y="-175"/>
      <point x="168" y="-175" type="curve" smooth="yes"/>
    </contour>
  </outline>
</glyph>
<glyph name="sixinferior" format="1">
  <advance width="347"/>
  <unicode hex="2086"/>
  <outline>
    <contour>
      <point x="260" y="-175"/>
      <point x="325" y="-127"/>
      <point x="325" y="-50" type="curve" smooth="yes"/>
      <point x="325" y="32"/>
      <point x="255" y="71"/>
      <point x="192" y="72" type="curve"/>
      <point x="248" y="140" type="line" smooth="yes"/>
      <point x="254" y="147"/>
      <point x="259" y="154"/>
      <point x="259" y="160" type="curve" smooth="yes"/>
      <point x="259" y="171"/>
      <point x="250" y="180"/>
      <point x="239" y="180" type="curve" smooth="yes"/>
      <point x="193" y="180" type="line" smooth="yes"/>
      <point x="182" y="180"/>
      <point x="171" y="173"/>
      <point x="164" y="165" type="curve" smooth="yes"/>
      <point x="78" y="59" type="line" smooth="yes"/>
      <point x="60" y="36"/>
      <point x="30" y="0"/>
      <point x="30" y="-51" type="curve" smooth="yes"/>
      <point x="30" y="-131"/>
      <point x="97" y="-175"/>
      <point x="179" y="-175" type="curve" smooth="yes"/>
    </contour>
    <contour>
      <point x="142" y="-102"/>
      <point x="119" y="-80"/>
      <point x="119" y="-50" type="curve" smooth="yes"/>
      <point x="119" y="-20"/>
      <point x="142" y="1"/>
      <point x="178" y="1" type="curve" smooth="yes"/>
      <point x="215" y="1"/>
      <point x="237" y="-20"/>
      <point x="237" y="-50" type="curve" smooth="yes"/>
      <point x="237" y="-80"/>
      <point x="214" y="-102"/>
      <point x="178" y="-102" type="curve" smooth="yes"/>
    </contour>
  </outline>
</glyph>
<glyph name="numero" format="1">
  <advance width="1191"/>
  <unicode hex="2116"/>
  <outline>
    <contour>
      <point x="181" y="0" type="line" smooth="yes"/>
      <point x="195" y="0"/>
      <point x="206" y="10"/>
      <point x="206" y="24" type="curve" smooth="yes"/>
      <point x="206" y="439" type="line"/>
      <point x="465" y="17" type="line" smooth="yes"/>
      <point x="467" y="12"/>
      <point x="475" y="0"/>
      <point x="494" y="0" type="curve" smooth="yes"/>
      <point x="574" y="0" type="line" smooth="yes"/>
      <point x="588" y="0"/>
      <point x="598" y="10"/>
      <point x="598" y="25" type="curve" smooth="yes"/>
      <point x="598" y="675" type="line" smooth="yes"/>
      <point x="598" y="690"/>
      <point x="588" y="700"/>
      <point x="573" y="700" type="curve" smooth="yes"/>
      <point x="487" y="700" type="line" smooth="yes"/>
      <point x="473" y="700"/>
      <point x="463" y="690"/>
      <point x="463" y="675" type="curve" smooth="yes"/>
      <point x="463" y="250" type="line"/>
      <point x="204" y="683" type="line" smooth="yes"/>
      <point x="202" y="689"/>
      <point x="194" y="700"/>
      <point x="175" y="700" type="curve" smooth="yes"/>
      <point x="95" y="700" type="line" smooth="yes"/>
      <point x="81" y="700"/>
      <point x="71" y="690"/>
      <point x="71" y="675" type="curve" smooth="yes"/>
      <point x="71" y="24" type="line" smooth="yes"/>
      <point x="71" y="10"/>
      <point x="81" y="0"/>
      <point x="95" y="0" type="curve" smooth="yes"/>
    </contour>
    <contour>
      <point x="1115" y="0" type="line" smooth="yes"/>
      <point x="1129" y="0"/>
      <point x="1139" y="10"/>
      <point x="1139" y="24" type="curve" smooth="yes"/>
      <point x="1139" y="51" type="line" smooth="yes"/>
      <point x="1139" y="64"/>
      <point x="1129" y="75"/>
      <point x="1115" y="75" type="curve" smooth="yes"/>
      <point x="671" y="75" type="line" smooth="yes"/>
      <point x="657" y="75"/>
      <point x="647" y="64"/>
      <point x="647" y="51" type="curve" smooth="yes"/>
      <point x="647" y="24" type="line" smooth="yes"/>
      <point x="647" y="10"/>
      <point x="657" y="0"/>
      <point x="671" y="0" type="curve" smooth="yes"/>
    </contour>
    <contour>
      <point x="1044" y="105"/>
      <point x="1139" y="192"/>
      <point x="1139" y="355" type="curve" smooth="yes"/>
      <point x="1139" y="518"/>
      <point x="1039" y="604"/>
      <point x="893" y="604" type="curve" smooth="yes"/>
      <point x="747" y="604"/>
      <point x="647" y="518"/>
      <point x="647" y="355" type="curve" smooth="yes"/>
      <point x="647" y="192"/>
      <point x="743" y="105"/>
      <point x="893" y="105" type="curve" smooth="yes"/>
    </contour>
    <contour>
      <point x="831" y="205"/>
      <point x="785" y="248"/>
      <point x="785" y="355" type="curve" smooth="yes"/>
      <point x="785" y="461"/>
      <point x="831" y="504"/>
      <point x="894" y="504" type="curve" smooth="yes"/>
      <point x="956" y="504"/>
      <point x="1002" y="461"/>
      <point x="1002" y="355" type="curve" smooth="yes"/>
      <point x="1002" y="249"/>
      <point x="956" y="205"/>
      <point x="894" y="205" type="curve" smooth="yes"/>
    </contour>
  </outline>
</glyph>
<glyph name="increment" format="1">
  <advance width="668"/>
  <unicode hex="2206"/>
  <outline>
    <contour>
      <point x="613" y="0" type="line" smooth="yes"/>
      <point x="628" y="0"/>
      <point x="640" y="12"/>
      <point x="640" y="27" type="curve" smooth="yes"/>
      <point x="640" y="55" type="line" smooth="yes"/>
      <point x="640" y="67"/>
      <point x="637" y="74"/>
      <point x="634" y="82" type="curve" smooth="yes"/>
      <point x="416" y="627" type="line" smooth="yes"/>
      <point x="410" y="641"/>
      <point x="398" y="660"/>
      <point x="371" y="660" type="curve" smooth="yes"/>
      <point x="296" y="660" type="line" smooth="yes"/>
      <point x="269" y="660"/>
      <point x="257" y="641"/>
      <point x="251" y="627" type="curve" smooth="yes"/>
      <point x="33" y="82" type="line" smooth="yes"/>
      <point x="30" y="74"/>
      <point x="27" y="67"/>
      <point x="27" y="55" type="curve" smooth="yes"/>
      <point x="27" y="27" type="line" smooth="yes"/>
      <point x="27" y="12"/>
      <point x="39" y="0"/>
      <point x="54" y="0" type="curve" smooth="yes"/>
    </contour>
    <contour>
      <point x="333" y="542" type="line"/>
      <point x="502" y="106" type="line"/>
      <point x="166" y="106" type="line"/>
    </contour>
  </outline>
</glyph>
<glyph name="Caron" format="1">
  <advance width="469"/>
  <unicode hex="F6CA"/>
  <outline>
    <contour>
      <point x="265" y="750" type="line" smooth="yes"/>
      <point x="277" y="750"/>
      <point x="285" y="752"/>
      <point x="299" y="766" type="curve" smooth="yes"/>
      <point x="396" y="867" type="line" smooth="yes"/>
      <point x="402" y="872"/>
      <point x="405" y="878"/>
      <point x="405" y="884" type="curve" smooth="yes"/>
      <point x="405" y="892"/>
      <point x="400" y="897"/>
      <point x="390" y="897" type="curve" smooth="yes"/>
      <point x="351" y="897" type="line" smooth="yes"/>
      <point x="341" y="897"/>
      <point x="328" y="895"/>
      <point x="320" y="890" type="curve" smooth="yes"/>
      <point x="235" y="837" type="line"/>
      <point x="150" y="890" type="line" smooth="yes"/>
      <point x="141" y="895"/>
      <point x="128" y="897"/>
      <point x="118" y="897" type="curve" smooth="yes"/>
      <point x="79" y="897" type="line" smooth="yes"/>
      <point x="69" y="897"/>
      <point x="64" y="892"/>
      <point x="64" y="884" type="curve" smooth="yes"/>
      <point x="64" y="878"/>
      <point x="67" y="872"/>
      <point x="73" y="867" type="curve" smooth="yes"/>
      <point x="171" y="766" type="line" smooth="yes"/>
      <point x="184" y="752"/>
      <point x="193" y="750"/>
      <point x="205" y="750" type="curve" smooth="yes"/>
    </contour>
  </outline>
</glyph>
<glyph name="Circumflex" format="1">
  <advance width="469"/>
  <outline>
    <contour>
      <point x="118" y="750" type="line" smooth="yes"/>
      <point x="128" y="750"/>
      <point x="141" y="752"/>
      <point x="150" y="757" type="curve" smooth="yes"/>
      <point x="235" y="810" type="line"/>
      <point x="320" y="757" type="line" smooth="yes"/>
      <point x="328" y="752"/>
      <point x="341" y="750"/>
      <point x="351" y="750" type="curve" smooth="yes"/>
      <point x="390" y="750" type="line" smooth="yes"/>
      <point x="400" y="750"/>
      <point x="405" y="754"/>
      <point x="405" y="763" type="curve" smooth="yes"/>
      <point x="405" y="769"/>
      <point x="402" y="774"/>
      <point x="396" y="780" type="curve" smooth="yes"/>
      <point x="299" y="881" type="line" smooth="yes"/>
      <point x="285" y="895"/>
      <point x="277" y="897"/>
      <point x="265" y="897" type="curve" smooth="yes"/>
      <point x="205" y="897" type="line" smooth="yes"/>
      <point x="193" y="897"/>
      <point x="184" y="895"/>
      <point x="171" y="881" type="curve" smooth="yes"/>
      <point x="73" y="780" type="line" smooth="yes"/>
      <point x="67" y="774"/>
      <point x="64" y="769"/>
      <point x="64" y="763" type="curve" smooth="yes"/>
      <point x="64" y="754"/>
      <point x="69" y="750"/>
      <point x="79" y="750" type="curve" smooth="yes"/>
    </contour>
  </outline>
</glyph>
<glyph name="Ogonek" format="1">
  <advance width="309"/>
  <outline>
    <contour>
      <point x="223" y="-220" type="line" smooth="yes"/>
      <point x="236" y="-220"/>
      <point x="247" y="-210"/>
      <point x="247" y="-196" type="curve" smooth="yes"/>
      <point x="247" y="-160" type="line" smooth="yes"/>
      <point x="247" y="-146"/>
      <point x="236" y="-136"/>
      <point x="223" y="-136" type="curve" smooth="yes"/>
      <point x="210" y="-136" type="line" smooth="yes"/>
      <point x="168" y="-136"/>
      <point x="145" y="-107"/>
      <point x="145" y="-68" type="curve" smooth="yes"/>
      <point x="145" y="-30"/>
      <point x="168" y="0"/>
      <point x="210" y="0" type="curve" smooth="yes"/>
      <point x="223" y="0" type="line" smooth="yes"/>
      <point x="236" y="0"/>
      <point x="247" y="10"/>
      <point x="247" y="24" type="curve" smooth="yes"/>
      <point x="247" y="60" type="line" smooth="yes"/>
      <point x="247" y="74"/>
      <point x="236" y="84"/>
      <point x="223" y="84" type="curve" smooth="yes"/>
      <point x="206" y="84" type="line" smooth="yes"/>
      <point x="108" y="84"/>
      <point x="57" y="21"/>
      <point x="57" y="-68" type="curve" smooth="yes"/>
      <point x="57" y="-157"/>
      <point x="108" y="-220"/>
      <point x="206" y="-220" type="curve" smooth="yes"/>
    </contour>
  </outline>
</glyph>
<glyph name="Ring" format="1">
  <advance width="300"/>
  <outline>
    <contour>
      <point x="199" y="740"/>
      <point x="239" y="775"/>
      <point x="239" y="823" type="curve" smooth="yes"/>
      <point x="239" y="872"/>
      <point x="199" y="907"/>
      <point x="150" y="907" type="curve" smooth="yes"/>
      <point x="102" y="907"/>
      <point x="62" y="872"/>
      <point x="62" y="823" type="curve" smooth="yes"/>
      <point x="62" y="775"/>
      <point x="102" y="740"/>
      <point x="150" y="740" type="curve" smooth="yes"/>
    </contour>
    <contour>
      <point x="133" y="793"/>
      <point x="120" y="806"/>
      <point x="120" y="823" type="curve" smooth="yes"/>
      <point x="120" y="840"/>
      <point x="133" y="853"/>
      <point x="150" y="853" type="curve" smooth="yes"/>
      <point x="167" y="853"/>
      <point x="180" y="840"/>
      <point x="180" y="823" type="curve" smooth="yes"/>
      <point x="180" y="806"/>
      <point x="167" y="793"/>
      <point x="150" y="793" type="curve" smooth="yes"/>
    </contour>
  </outline>
</glyph>
<glyph name="emdash.cap" format="1">
  <advance width="768"/>
  <outline>
    <contour>
      <point x="678" y="292" type="line" smooth="yes"/>
      <point x="691" y="292"/>
      <point x="702" y="303"/>
      <point x="702" y="316" type="curve" smooth="yes"/>
      <point x="702" y="384" type="line" smooth="yes"/>
      <point x="702" y="398"/>
      <point x="691" y="408"/>
      <point x="678" y="408" type="curve" smooth="yes"/>
      <point x="90" y="408" type="line" smooth="yes"/>
      <point x="76" y="408"/>
      <point x="66" y="398"/>
      <point x="66" y="384" type="curve" smooth="yes"/>
      <point x="66" y="316" type="line" smooth="yes"/>
      <point x="66" y="303"/>
      <point x="76" y="292"/>
      <point x="90" y="292" type="curve" smooth="yes"/>
    </contour>
  </outline>
</glyph>
<glyph name="guillemetright.cap" format="1">
  <advance width="624"/>
  <outline>
    <contour>
      <point x="352" y="84"/>
      <point x="360" y="87"/>
      <point x="367" y="93" type="curve" smooth="yes"/>
      <point x="567" y="287" type="line" smooth="yes"/>
      <point x="578" y="298"/>
      <point x="582" y="308"/>
      <point x="583" y="319" type="curve" smooth="yes"/>
      <point x="583" y="356" type="line" smooth="yes"/>
      <point x="582" y="368"/>
      <point x="578" y="378"/>
      <point x="567" y="388" type="curve" smooth="yes"/>
      <point x="367" y="582" type="line" smooth="yes"/>
      <point x="360" y="589"/>
      <point x="352" y="591"/>
      <point x="347" y="591" type="curve" smooth="yes"/>
      <point x="335" y="591"/>
      <point x="326" y="583"/>
      <point x="326" y="571" type="curve" smooth="yes"/>
      <point x="326" y="502" type="line" smooth="yes"/>
      <point x="326" y="483"/>
      <point x="331" y="475"/>
      <point x="344" y="462" type="curve" smooth="yes"/>
      <point x="471" y="338" type="line"/>
      <point x="344" y="213" type="line" smooth="yes"/>
      <point x="331" y="200"/>
      <point x="326" y="193"/>
      <point x="326" y="174" type="curve" smooth="yes"/>
      <point x="326" y="105" type="line" smooth="yes"/>
      <point x="326" y="93"/>
      <point x="335" y="84"/>
      <point x="347" y="84" type="curve" smooth="yes"/>
    </contour>
    <contour>
      <point x="86" y="84"/>
      <point x="94" y="87"/>
      <point x="101" y="93" type="curve" smooth="yes"/>
      <point x="301" y="287" type="line" smooth="yes"/>
      <point x="312" y="298"/>
      <point x="316" y="308"/>
      <point x="317" y="319" type="curve" smooth="yes"/>
      <point x="317" y="356" type="line" smooth="yes"/>
      <point x="316" y="368"/>
      <point x="312" y="378"/>
      <point x="301" y="388" type="curve" smooth="yes"/>
      <point x="101" y="582" type="line" smooth="yes"/>
      <point x="94" y="589"/>
      <point x="86" y="591"/>
      <point x="81" y="591" type="curve" smooth="yes"/>
      <point x="69" y="591"/>
      <point x="60" y="583"/>
      <point x="60" y="571" type="curve" smooth="yes"/>
      <point x="60" y="502" type="line" smooth="yes"/>
      <point x="60" y="483"/>
      <point x="65" y="475"/>
      <point x="78" y="462" type="curve" smooth="yes"/>
      <point x="205" y="338" type="line"/>
      <point x="78" y="213" type="line" smooth="yes"/>
      <point x="65" y="200"/>
      <point x="60" y="193"/>
      <point x="60" y="174" type="curve" smooth="yes"/>
      <point x="60" y="105" type="line" smooth="yes"/>
      <point x="60" y="93"/>
      <point x="69" y="84"/>
      <point x="81" y="84" type="curve" smooth="yes"/>
    </contour>
  </outline>
</glyph>
<glyph name="guilsinglleft.cap" format="1">
  <advance width="358"/>
  <outline>
    <contour>
      <point x="289" y="84"/>
      <point x="298" y="93"/>
      <point x="298" y="105" type="curve" smooth="yes"/>
      <point x="298" y="174" type="line" smooth="yes"/>
      <point x="298" y="193"/>
      <point x="293" y="200"/>
      <point x="280" y="213" type="curve" smooth="yes"/>
      <point x="152" y="338" type="line"/>
      <point x="280" y="462" type="line" smooth="yes"/>
      <point x="293" y="475"/>
      <point x="298" y="483"/>
      <point x="298" y="502" type="curve" smooth="yes"/>
      <point x="298" y="571" type="line" smooth="yes"/>
      <point x="298" y="583"/>
      <point x="289" y="591"/>
      <point x="277" y="591" type="curve" smooth="yes"/>
      <point x="272" y="591"/>
      <point x="264" y="589"/>
      <point x="257" y="582" type="curve" smooth="yes"/>
      <point x="57" y="388" type="line" smooth="yes"/>
      <point x="46" y="378"/>
      <point x="42" y="368"/>
      <point x="41" y="356" type="curve" smooth="yes"/>
      <point x="41" y="319" type="line" smooth="yes"/>
      <point x="42" y="308"/>
      <point x="46" y="298"/>
      <point x="57" y="287" type="curve" smooth="yes"/>
      <point x="257" y="93" type="line" smooth="yes"/>
      <point x="264" y="87"/>
      <point x="272" y="84"/>
      <point x="277" y="84" type="curve" smooth="yes"/>
    </contour>
  </outline>
</glyph>
<glyph name="minus.cap" format="1">
  <advance width="647"/>
  <outline>
    <contour>
      <point x="557" y="299" type="line" smooth="yes"/>
      <point x="570" y="299"/>
      <point x="581" y="309"/>
      <point x="581" y="323" type="curve" smooth="yes"/>
      <point x="581" y="377" type="line" smooth="yes"/>
      <point x="581" y="390"/>
      <point x="570" y="401"/>
      <point x="557" y="401" type="curve" smooth="yes"/>
      <point x="90" y="401" type="line" smooth="yes"/>
      <point x="76" y="401"/>
      <point x="66" y="390"/>
      <point x="66" y="377" type="curve" smooth="yes"/>
      <point x="66" y="323" type="line" smooth="yes"/>
      <point x="66" y="309"/>
      <point x="76" y="299"/>
      <point x="90" y="299" type="curve" smooth="yes"/>
    </contour>
  </outline>
</glyph>
<glyph name="parenright.otlf" format="1">
  <advance width="642"/>
  <outline>
    <contour>
      <point x="371" y="-117"/>
      <point x="457" y="21"/>
      <point x="457" y="351" type="curve" smooth="yes"/>
      <point x="457" y="681"/>
      <point x="371" y="818"/>
      <point x="192" y="818" type="curve" smooth="yes"/>
      <point x="179" y="818"/>
      <point x="168" y="807"/>
      <point x="168" y="794" type="curve" smooth="yes"/>
      <point x="168" y="733" type="line" smooth="yes"/>
      <point x="168" y="720"/>
      <point x="179" y="709"/>
      <point x="190" y="709" type="curve" smooth="yes"/>
      <point x="301" y="705"/>
      <point x="335" y="596"/>
      <point x="335" y="351" type="curve" smooth="yes"/>
      <point x="335" y="106"/>
      <point x="301" y="-4"/>
      <point x="190" y="-8" type="curve" smooth="yes"/>
      <point x="179" y="-8"/>
      <point x="168" y="-19"/>
      <point x="168" y="-32" type="curve" smooth="yes"/>
      <point x="168" y="-93" type="line" smooth="yes"/>
      <point x="168" y="-106"/>
      <point x="179" y="-117"/>
      <point x="192" y="-117" type="curve" smooth="yes"/>
    </contour>
  </outline>
</glyph>
<glyph name="zero.otlf" format="1">
  <advance width="642"/>
  <outline>
    <contour>
      <point x="509" y="-10"/>
      <point x="584" y="111"/>
      <point x="591" y="258" type="curve" smooth="yes"/>
      <point x="593" y="312"/>
      <point x="593" y="387"/>
      <point x="591" y="444" type="curve" smooth="yes"/>
      <point x="585" y="591"/>
      <point x="505" y="710"/>
      <point x="320" y="710" type="curve"/>
      <point x="135" y="710"/>
      <point x="55" y="591"/>
      <point x="49" y="444" type="curve" smooth="yes"/>
      <point x="47" y="387"/>
      <point x="47" y="312"/>
      <point x="49" y="258" type="curve" smooth="yes"/>
      <point x="56" y="111"/>
      <point x="131" y="-10"/>
      <point x="320" y="-10" type="curve"/>
    </contour>
    <contour>
      <point x="236" y="107"/>
      <point x="197" y="167"/>
      <point x="195" y="263" type="curve" smooth="yes"/>
      <point x="193" y="320"/>
      <point x="193" y="384"/>
      <point x="195" y="439" type="curve" smooth="yes"/>
      <point x="197" y="532"/>
      <point x="235" y="594"/>
      <point x="321" y="595" type="curve"/>
      <point x="406" y="594"/>
      <point x="444" y="532"/>
      <point x="446" y="439" type="curve" smooth="yes"/>
      <point x="448" y="384"/>
      <point x="448" y="320"/>
      <point x="446" y="263" type="curve" smooth="yes"/>
      <point x="444" y="167"/>
      <point x="405" y="107"/>
      <point x="321" y="107" type="curve" smooth="yes"/>
    </contour>
  </outline>
</glyph>
